<svg xmlns="http://www.w3.org/2000/svg" width="13.371" height="14" viewBox="0 0 13.371 14"><defs><style>.a{fill:#fff;}</style></defs><path class="a" d="M18.7.346l.7,1.706a.492.492,0,0,0,.715.232l1.567-.97a.556.556,0,0,1,.833.605l-.438,1.79a.492.492,0,0,0,.442.608l1.838.136a.556.556,0,0,1,.318.98L23.269,6.625a.492.492,0,0,0,0,.751l1.407,1.191a.556.556,0,0,1-.318.98l-1.838.136a.492.492,0,0,0-.442.608l.438,1.79a.556.556,0,0,1-.833.605l-1.567-.97a.492.492,0,0,0-.715.232l-.7,1.706a.556.556,0,0,1-1.03,0l-.7-1.706a.492.492,0,0,0-.715-.232l-1.567.97a.556.556,0,0,1-.833-.605l.438-1.79a.492.492,0,0,0-.442-.608l-1.838-.136a.556.556,0,0,1-.318-.98l1.407-1.191a.492.492,0,0,0,0-.751L11.7,5.434a.556.556,0,0,1,.318-.98l1.838-.136A.492.492,0,0,0,14.3,3.71l-.438-1.79a.556.556,0,0,1,.833-.605l1.567.97a.492.492,0,0,0,.715-.232l.7-1.706a.556.556,0,0,1,1.03,0ZM21.907,7a3.719,3.719,0,1,0-3.719,3.719A3.723,3.723,0,0,0,21.907,7Zm-.875,0a2.844,2.844,0,1,1-2.844-2.844A2.847,2.847,0,0,1,21.032,7Z" transform="translate(-11.503 0)"/></svg>